<svg width="120" height="40" viewBox="0 0 120 40" fill="none" xmlns="http://www.w3.org/2000/svg">
  <!-- Background Circle -->
  <circle cx="20" cy="20" r="18" fill="url(#gradient1)" stroke="#1a73e8" stroke-width="2"/>
  
  <!-- AI Brain Icon -->
  <path d="M20 8c-6.627 0-12 5.373-12 12s5.373 12 12 12 12-5.373 12-12S26.627 8 20 8zm0 2c5.523 0 10 4.477 10 10s-4.477 10-10 10S10 25.523 10 20s4.477-10 10-10z" fill="white" opacity="0.9"/>
  
  <!-- Neural Network Pattern -->
  <circle cx="16" cy="16" r="1.5" fill="white"/>
  <circle cx="24" cy="16" r="1.5" fill="white"/>
  <circle cx="20" cy="20" r="1.5" fill="white"/>
  <circle cx="16" cy="24" r="1.5" fill="white"/>
  <circle cx="24" cy="24" r="1.5" fill="white"/>
  
  <!-- Connection Lines -->
  <line x1="16" y1="16" x2="20" y2="20" stroke="white" stroke-width="1" opacity="0.7"/>
  <line x1="24" y1="16" x2="20" y2="20" stroke="white" stroke-width="1" opacity="0.7"/>
  <line x1="20" y1="20" x2="16" y2="24" stroke="white" stroke-width="1" opacity="0.7"/>
  <line x1="20" y1="20" x2="24" y2="24" stroke="white" stroke-width="1" opacity="0.7"/>
  
  <!-- Text -->
  <text x="45" y="16" font-family="Arial, sans-serif" font-size="14" font-weight="bold" fill="#1a73e8">ZEEKY</text>
  <text x="45" y="28" font-family="Arial, sans-serif" font-size="10" fill="#666">AI PLATFORM</text>
  
  <!-- Gradient Definition -->
  <defs>
    <linearGradient id="gradient1" x1="0%" y1="0%" x2="100%" y2="100%">
      <stop offset="0%" style="stop-color:#1a73e8;stop-opacity:1" />
      <stop offset="100%" style="stop-color:#4285f4;stop-opacity:1" />
    </linearGradient>
  </defs>
</svg>
